<mxfile host="app.diagrams.net" agent="Mozilla/5.0 (Windows NT 10.0; Win64; x64) AppleWebKit/537.36 (KHTML, like Gecko) Chrome/130.0.0.0 Safari/537.36" version="24.8.3">
  <diagram id="C5RBs43oDa-KdzZeNtuy" name="Page-1">
    <mxGraphModel grid="1" page="1" gridSize="10" guides="1" tooltips="1" connect="1" arrows="1" fold="1" pageScale="1" pageWidth="827" pageHeight="1169" math="0" shadow="0">
      <root>
        <mxCell id="WIyWlLk6GJQsqaUBKTNV-0" />
        <mxCell id="WIyWlLk6GJQsqaUBKTNV-1" parent="WIyWlLk6GJQsqaUBKTNV-0" />
        <mxCell id="DAk2LymFE52niI233r9b-0" value="User" style="swimlane;fontStyle=1;align=center;verticalAlign=top;childLayout=stackLayout;horizontal=1;startSize=26;horizontalStack=0;resizeParent=1;resizeParentMax=0;resizeLast=0;collapsible=1;marginBottom=0;whiteSpace=wrap;html=1;" vertex="1" parent="WIyWlLk6GJQsqaUBKTNV-1">
          <mxGeometry x="280" y="120" width="240" height="240" as="geometry" />
        </mxCell>
        <mxCell id="DAk2LymFE52niI233r9b-1" value="# ID: string&lt;div&gt;# name: string&lt;/div&gt;&lt;div&gt;# address: string&lt;/div&gt;&lt;div&gt;# email: string&lt;/div&gt;&lt;div&gt;# tel: string&lt;/div&gt;&lt;div&gt;# gender: string&lt;/div&gt;&lt;div&gt;# role: Role&lt;/div&gt;" style="text;strokeColor=none;fillColor=none;align=left;verticalAlign=top;spacingLeft=4;spacingRight=4;overflow=hidden;rotatable=0;points=[[0,0.5],[1,0.5]];portConstraint=eastwest;whiteSpace=wrap;html=1;" vertex="1" parent="DAk2LymFE52niI233r9b-0">
          <mxGeometry y="26" width="240" height="114" as="geometry" />
        </mxCell>
        <mxCell id="DAk2LymFE52niI233r9b-2" value="" style="line;strokeWidth=1;fillColor=none;align=left;verticalAlign=middle;spacingTop=-1;spacingLeft=3;spacingRight=3;rotatable=0;labelPosition=right;points=[];portConstraint=eastwest;strokeColor=inherit;" vertex="1" parent="DAk2LymFE52niI233r9b-0">
          <mxGeometry y="140" width="240" height="8" as="geometry" />
        </mxCell>
        <mxCell id="DAk2LymFE52niI233r9b-3" value="+ createUser(in user: User): void&lt;div&gt;+ removeUser(): void&lt;br&gt;&lt;div&gt;+ getUserInfo(): User&amp;nbsp;&amp;nbsp;&lt;/div&gt;&lt;div&gt;+ updateUserInfo(in user: User): void&lt;/div&gt;&lt;/div&gt;" style="text;strokeColor=none;fillColor=none;align=left;verticalAlign=top;spacingLeft=4;spacingRight=4;overflow=hidden;rotatable=0;points=[[0,0.5],[1,0.5]];portConstraint=eastwest;whiteSpace=wrap;html=1;" vertex="1" parent="DAk2LymFE52niI233r9b-0">
          <mxGeometry y="148" width="240" height="92" as="geometry" />
        </mxCell>
        <mxCell id="DAk2LymFE52niI233r9b-67" style="edgeStyle=orthogonalEdgeStyle;rounded=0;orthogonalLoop=1;jettySize=auto;html=1;exitX=0;exitY=0.25;exitDx=0;exitDy=0;endArrow=block;endFill=0;" edge="1" parent="WIyWlLk6GJQsqaUBKTNV-1" source="DAk2LymFE52niI233r9b-8">
          <mxGeometry relative="1" as="geometry">
            <mxPoint x="600" y="220.57" as="sourcePoint" />
            <mxPoint x="520" y="219" as="targetPoint" />
            <Array as="points">
              <mxPoint x="581" y="220" />
            </Array>
          </mxGeometry>
        </mxCell>
        <mxCell id="DAk2LymFE52niI233r9b-8" value="Student" style="swimlane;fontStyle=1;align=center;verticalAlign=top;childLayout=stackLayout;horizontal=1;startSize=26;horizontalStack=0;resizeParent=1;resizeParentMax=0;resizeLast=0;collapsible=1;marginBottom=0;whiteSpace=wrap;html=1;" vertex="1" parent="WIyWlLk6GJQsqaUBKTNV-1">
          <mxGeometry x="640" y="200" width="160" height="80" as="geometry" />
        </mxCell>
        <mxCell id="DAk2LymFE52niI233r9b-9" value="+ noPage: integer" style="text;strokeColor=none;fillColor=none;align=left;verticalAlign=top;spacingLeft=4;spacingRight=4;overflow=hidden;rotatable=0;points=[[0,0.5],[1,0.5]];portConstraint=eastwest;whiteSpace=wrap;html=1;" vertex="1" parent="DAk2LymFE52niI233r9b-8">
          <mxGeometry y="26" width="160" height="24" as="geometry" />
        </mxCell>
        <mxCell id="DAk2LymFE52niI233r9b-10" value="" style="line;strokeWidth=1;fillColor=none;align=left;verticalAlign=middle;spacingTop=-1;spacingLeft=3;spacingRight=3;rotatable=0;labelPosition=right;points=[];portConstraint=eastwest;strokeColor=inherit;" vertex="1" parent="DAk2LymFE52niI233r9b-8">
          <mxGeometry y="50" width="160" height="8" as="geometry" />
        </mxCell>
        <mxCell id="DAk2LymFE52niI233r9b-11" value="+ getPage(): integer" style="text;strokeColor=none;fillColor=none;align=left;verticalAlign=top;spacingLeft=4;spacingRight=4;overflow=hidden;rotatable=0;points=[[0,0.5],[1,0.5]];portConstraint=eastwest;whiteSpace=wrap;html=1;" vertex="1" parent="DAk2LymFE52niI233r9b-8">
          <mxGeometry y="58" width="160" height="22" as="geometry" />
        </mxCell>
        <mxCell id="DAk2LymFE52niI233r9b-66" style="edgeStyle=orthogonalEdgeStyle;rounded=0;orthogonalLoop=1;jettySize=auto;html=1;exitX=1;exitY=0.5;exitDx=0;exitDy=0;endArrow=block;endFill=0;entryX=-0.003;entryY=0.656;entryDx=0;entryDy=0;entryPerimeter=0;" edge="1" parent="WIyWlLk6GJQsqaUBKTNV-1" source="DAk2LymFE52niI233r9b-12" target="DAk2LymFE52niI233r9b-1">
          <mxGeometry relative="1" as="geometry">
            <mxPoint x="90" y="220" as="sourcePoint" />
            <mxPoint x="290" y="220" as="targetPoint" />
          </mxGeometry>
        </mxCell>
        <mxCell id="DAk2LymFE52niI233r9b-12" value="SPSO" style="swimlane;fontStyle=1;align=center;verticalAlign=top;childLayout=stackLayout;horizontal=1;startSize=30;horizontalStack=0;resizeParent=1;resizeParentMax=0;resizeLast=0;collapsible=1;marginBottom=0;whiteSpace=wrap;html=1;" vertex="1" parent="WIyWlLk6GJQsqaUBKTNV-1">
          <mxGeometry x="-240" y="202" width="120" height="38" as="geometry" />
        </mxCell>
        <mxCell id="DAk2LymFE52niI233r9b-14" value="" style="line;strokeWidth=1;fillColor=none;align=left;verticalAlign=middle;spacingTop=-1;spacingLeft=3;spacingRight=3;rotatable=0;labelPosition=right;points=[];portConstraint=eastwest;strokeColor=inherit;" vertex="1" parent="DAk2LymFE52niI233r9b-12">
          <mxGeometry y="30" width="120" height="8" as="geometry" />
        </mxCell>
        <mxCell id="uwkByYollk92JQCde-ek-0" style="edgeStyle=orthogonalEdgeStyle;rounded=0;orthogonalLoop=1;jettySize=auto;html=1;exitX=0.5;exitY=0;exitDx=0;exitDy=0;endArrow=none;endFill=0;" edge="1" parent="WIyWlLk6GJQsqaUBKTNV-1" source="DAk2LymFE52niI233r9b-20" target="DAk2LymFE52niI233r9b-8">
          <mxGeometry relative="1" as="geometry" />
        </mxCell>
        <mxCell id="uwkByYollk92JQCde-ek-10" style="edgeStyle=orthogonalEdgeStyle;rounded=0;orthogonalLoop=1;jettySize=auto;html=1;exitX=1;exitY=0.5;exitDx=0;exitDy=0;endArrow=none;endFill=0;" edge="1" parent="WIyWlLk6GJQsqaUBKTNV-1">
          <mxGeometry relative="1" as="geometry">
            <mxPoint x="801" y="420" as="sourcePoint" />
            <mxPoint x="920" y="420" as="targetPoint" />
          </mxGeometry>
        </mxCell>
        <mxCell id="DAk2LymFE52niI233r9b-20" value="Student Controller" style="swimlane;fontStyle=1;align=center;verticalAlign=top;childLayout=stackLayout;horizontal=1;startSize=26;horizontalStack=0;resizeParent=1;resizeParentMax=0;resizeLast=0;collapsible=1;marginBottom=0;whiteSpace=wrap;html=1;" vertex="1" parent="WIyWlLk6GJQsqaUBKTNV-1">
          <mxGeometry x="640" y="360" width="160" height="140" as="geometry" />
        </mxCell>
        <mxCell id="DAk2LymFE52niI233r9b-22" value="" style="line;strokeWidth=1;fillColor=none;align=left;verticalAlign=middle;spacingTop=-1;spacingLeft=3;spacingRight=3;rotatable=0;labelPosition=right;points=[];portConstraint=eastwest;strokeColor=inherit;" vertex="1" parent="DAk2LymFE52niI233r9b-20">
          <mxGeometry y="26" width="160" height="8" as="geometry" />
        </mxCell>
        <mxCell id="DAk2LymFE52niI233r9b-23" value="+ view_Profile(): void&lt;div&gt;+ print_Service(): void&lt;/div&gt;&lt;div&gt;+ purchase_Service(): void&lt;/div&gt;&lt;div&gt;+ view_History(): void&lt;/div&gt;&lt;div&gt;+ login(): void&lt;/div&gt;&lt;div&gt;+ logout(): void&lt;/div&gt;" style="text;strokeColor=none;fillColor=none;align=left;verticalAlign=top;spacingLeft=4;spacingRight=4;overflow=hidden;rotatable=0;points=[[0,0.5],[1,0.5]];portConstraint=eastwest;whiteSpace=wrap;html=1;" vertex="1" parent="DAk2LymFE52niI233r9b-20">
          <mxGeometry y="34" width="160" height="106" as="geometry" />
        </mxCell>
        <mxCell id="uwkByYollk92JQCde-ek-1" style="edgeStyle=orthogonalEdgeStyle;rounded=0;orthogonalLoop=1;jettySize=auto;html=1;exitX=0.5;exitY=0;exitDx=0;exitDy=0;endArrow=none;endFill=0;" edge="1" parent="WIyWlLk6GJQsqaUBKTNV-1" source="DAk2LymFE52niI233r9b-24" target="DAk2LymFE52niI233r9b-12">
          <mxGeometry relative="1" as="geometry" />
        </mxCell>
        <mxCell id="uwkByYollk92JQCde-ek-11" style="edgeStyle=orthogonalEdgeStyle;rounded=0;orthogonalLoop=1;jettySize=auto;html=1;exitX=0;exitY=0.5;exitDx=0;exitDy=0;endArrow=none;endFill=0;" edge="1" parent="WIyWlLk6GJQsqaUBKTNV-1" source="DAk2LymFE52niI233r9b-24" target="uwkByYollk92JQCde-ek-6">
          <mxGeometry relative="1" as="geometry" />
        </mxCell>
        <mxCell id="DAk2LymFE52niI233r9b-24" value="SPSO controller" style="swimlane;fontStyle=1;align=center;verticalAlign=top;childLayout=stackLayout;horizontal=1;startSize=26;horizontalStack=0;resizeParent=1;resizeParentMax=0;resizeLast=0;collapsible=1;marginBottom=0;whiteSpace=wrap;html=1;" vertex="1" parent="WIyWlLk6GJQsqaUBKTNV-1">
          <mxGeometry x="-278.75" y="360" width="197.5" height="160" as="geometry" />
        </mxCell>
        <mxCell id="DAk2LymFE52niI233r9b-26" value="" style="line;strokeWidth=1;fillColor=none;align=left;verticalAlign=middle;spacingTop=-1;spacingLeft=3;spacingRight=3;rotatable=0;labelPosition=right;points=[];portConstraint=eastwest;strokeColor=inherit;" vertex="1" parent="DAk2LymFE52niI233r9b-24">
          <mxGeometry y="26" width="197.5" height="8" as="geometry" />
        </mxCell>
        <mxCell id="DAk2LymFE52niI233r9b-27" value="&lt;div&gt;&lt;div&gt;- report_AutoGenerate(): Report&lt;/div&gt;&lt;/div&gt;+ view_Profile(): void&lt;div&gt;+ configure_Printer(): void&lt;/div&gt;&lt;div&gt;+ configure_Page(): void&lt;/div&gt;&lt;div&gt;+ view_History(): void&lt;/div&gt;&lt;div&gt;+ view_Report(): void&lt;/div&gt;&lt;div&gt;&lt;span style=&quot;background-color: initial;&quot;&gt;+ login(): void&lt;/span&gt;&lt;br&gt;&lt;/div&gt;&lt;div&gt;+ logout(): void&lt;/div&gt;&lt;div&gt;&lt;br&gt;&lt;/div&gt;" style="text;strokeColor=none;fillColor=none;align=left;verticalAlign=top;spacingLeft=4;spacingRight=4;overflow=hidden;rotatable=0;points=[[0,0.5],[1,0.5]];portConstraint=eastwest;whiteSpace=wrap;html=1;" vertex="1" parent="DAk2LymFE52niI233r9b-24">
          <mxGeometry y="34" width="197.5" height="126" as="geometry" />
        </mxCell>
        <mxCell id="N-Cw9iXqyluHti3zevqQ-42" style="edgeStyle=orthogonalEdgeStyle;rounded=0;orthogonalLoop=1;jettySize=auto;html=1;exitX=0.5;exitY=0;exitDx=0;exitDy=0;endArrow=none;endFill=0;" edge="1" parent="WIyWlLk6GJQsqaUBKTNV-1" source="DAk2LymFE52niI233r9b-32" target="DAk2LymFE52niI233r9b-20">
          <mxGeometry relative="1" as="geometry">
            <Array as="points">
              <mxPoint x="500" y="680" />
              <mxPoint x="500" y="600" />
              <mxPoint x="720" y="600" />
            </Array>
          </mxGeometry>
        </mxCell>
        <mxCell id="N-Cw9iXqyluHti3zevqQ-45" style="edgeStyle=orthogonalEdgeStyle;rounded=0;orthogonalLoop=1;jettySize=auto;html=1;dashed=1;endArrow=open;endFill=0;" edge="1" parent="WIyWlLk6GJQsqaUBKTNV-1" source="DAk2LymFE52niI233r9b-32" target="N-Cw9iXqyluHti3zevqQ-15">
          <mxGeometry relative="1" as="geometry">
            <Array as="points">
              <mxPoint x="320" y="740" />
            </Array>
            <mxPoint x="380" y="930" as="sourcePoint" />
          </mxGeometry>
        </mxCell>
        <mxCell id="uwkByYollk92JQCde-ek-16" value="Use" style="edgeLabel;html=1;align=center;verticalAlign=middle;resizable=0;points=[];" vertex="1" connectable="0" parent="N-Cw9iXqyluHti3zevqQ-45">
          <mxGeometry x="0.7527" y="-3" relative="1" as="geometry">
            <mxPoint x="3" y="-193" as="offset" />
          </mxGeometry>
        </mxCell>
        <mxCell id="uwkByYollk92JQCde-ek-17" style="edgeStyle=orthogonalEdgeStyle;rounded=0;orthogonalLoop=1;jettySize=auto;html=1;exitX=0.5;exitY=1;exitDx=0;exitDy=0;endArrow=none;endFill=0;" edge="1" parent="WIyWlLk6GJQsqaUBKTNV-1" source="DAk2LymFE52niI233r9b-32" target="uwkByYollk92JQCde-ek-12">
          <mxGeometry relative="1" as="geometry" />
        </mxCell>
        <mxCell id="DAk2LymFE52niI233r9b-32" value="Student View History Controller" style="swimlane;fontStyle=1;align=center;verticalAlign=top;childLayout=stackLayout;horizontal=1;startSize=26;horizontalStack=0;resizeParent=1;resizeParentMax=0;resizeLast=0;collapsible=1;marginBottom=0;whiteSpace=wrap;html=1;" vertex="1" parent="WIyWlLk6GJQsqaUBKTNV-1">
          <mxGeometry x="360" y="680" width="200" height="90" as="geometry" />
        </mxCell>
        <mxCell id="DAk2LymFE52niI233r9b-34" value="" style="line;strokeWidth=1;fillColor=none;align=left;verticalAlign=middle;spacingTop=-1;spacingLeft=3;spacingRight=3;rotatable=0;labelPosition=right;points=[];portConstraint=eastwest;strokeColor=inherit;" vertex="1" parent="DAk2LymFE52niI233r9b-32">
          <mxGeometry y="26" width="200" height="8" as="geometry" />
        </mxCell>
        <mxCell id="DAk2LymFE52niI233r9b-35" value="+ filterBy_Time(): void&lt;div&gt;+ filterBy_Printer(): void&lt;/div&gt;" style="text;strokeColor=none;fillColor=none;align=left;verticalAlign=top;spacingLeft=4;spacingRight=4;overflow=hidden;rotatable=0;points=[[0,0.5],[1,0.5]];portConstraint=eastwest;whiteSpace=wrap;html=1;" vertex="1" parent="DAk2LymFE52niI233r9b-32">
          <mxGeometry y="34" width="200" height="56" as="geometry" />
        </mxCell>
        <mxCell id="N-Cw9iXqyluHti3zevqQ-43" style="edgeStyle=orthogonalEdgeStyle;rounded=0;orthogonalLoop=1;jettySize=auto;html=1;exitX=0.5;exitY=0;exitDx=0;exitDy=0;endArrow=none;endFill=0;" edge="1" parent="WIyWlLk6GJQsqaUBKTNV-1" source="DAk2LymFE52niI233r9b-36" target="DAk2LymFE52niI233r9b-20">
          <mxGeometry relative="1" as="geometry">
            <Array as="points">
              <mxPoint x="720" y="685" />
            </Array>
          </mxGeometry>
        </mxCell>
        <mxCell id="N-Cw9iXqyluHti3zevqQ-57" style="edgeStyle=orthogonalEdgeStyle;rounded=0;orthogonalLoop=1;jettySize=auto;html=1;dashed=1;endArrow=open;endFill=0;" edge="1" parent="WIyWlLk6GJQsqaUBKTNV-1" target="N-Cw9iXqyluHti3zevqQ-15">
          <mxGeometry relative="1" as="geometry">
            <Array as="points">
              <mxPoint x="680" y="1120" />
            </Array>
            <mxPoint x="681" y="866" as="sourcePoint" />
          </mxGeometry>
        </mxCell>
        <mxCell id="N-Cw9iXqyluHti3zevqQ-58" value="Use" style="edgeLabel;html=1;align=center;verticalAlign=middle;resizable=0;points=[];" vertex="1" connectable="0" parent="N-Cw9iXqyluHti3zevqQ-57">
          <mxGeometry x="0.2464" y="-1" relative="1" as="geometry">
            <mxPoint x="-45" as="offset" />
          </mxGeometry>
        </mxCell>
        <mxCell id="N-Cw9iXqyluHti3zevqQ-69" style="edgeStyle=orthogonalEdgeStyle;rounded=0;orthogonalLoop=1;jettySize=auto;html=1;dashed=1;endArrow=open;endFill=0;" edge="1" parent="WIyWlLk6GJQsqaUBKTNV-1" target="N-Cw9iXqyluHti3zevqQ-0">
          <mxGeometry relative="1" as="geometry">
            <mxPoint x="763" y="867" as="sourcePoint" />
            <Array as="points">
              <mxPoint x="760" y="867" />
              <mxPoint x="760" y="1680" />
              <mxPoint y="1680" />
            </Array>
          </mxGeometry>
        </mxCell>
        <mxCell id="N-Cw9iXqyluHti3zevqQ-70" value="Use" style="edgeLabel;html=1;align=center;verticalAlign=middle;resizable=0;points=[];" vertex="1" connectable="0" parent="N-Cw9iXqyluHti3zevqQ-69">
          <mxGeometry x="-0.0942" y="-3" relative="1" as="geometry">
            <mxPoint x="-237" y="48" as="offset" />
          </mxGeometry>
        </mxCell>
        <mxCell id="N-Cw9iXqyluHti3zevqQ-71" style="edgeStyle=orthogonalEdgeStyle;rounded=0;orthogonalLoop=1;jettySize=auto;html=1;dashed=1;endArrow=open;endFill=0;exitX=0.435;exitY=1.005;exitDx=0;exitDy=0;exitPerimeter=0;" edge="1" parent="WIyWlLk6GJQsqaUBKTNV-1" source="DAk2LymFE52niI233r9b-39" target="N-Cw9iXqyluHti3zevqQ-52">
          <mxGeometry relative="1" as="geometry">
            <Array as="points">
              <mxPoint x="720" y="1500" />
            </Array>
            <mxPoint x="720" y="910" as="sourcePoint" />
          </mxGeometry>
        </mxCell>
        <mxCell id="N-Cw9iXqyluHti3zevqQ-72" value="Use" style="edgeLabel;html=1;align=center;verticalAlign=middle;resizable=0;points=[];" vertex="1" connectable="0" parent="N-Cw9iXqyluHti3zevqQ-71">
          <mxGeometry x="0.3674" y="2" relative="1" as="geometry">
            <mxPoint as="offset" />
          </mxGeometry>
        </mxCell>
        <mxCell id="uwkByYollk92JQCde-ek-22" style="edgeStyle=orthogonalEdgeStyle;rounded=0;orthogonalLoop=1;jettySize=auto;html=1;exitX=1;exitY=0.5;exitDx=0;exitDy=0;endArrow=none;endFill=0;" edge="1" parent="WIyWlLk6GJQsqaUBKTNV-1" source="DAk2LymFE52niI233r9b-36" target="uwkByYollk92JQCde-ek-18">
          <mxGeometry relative="1" as="geometry">
            <Array as="points">
              <mxPoint x="895" y="773" />
            </Array>
          </mxGeometry>
        </mxCell>
        <mxCell id="DAk2LymFE52niI233r9b-36" value="Student Printting Controller" style="swimlane;fontStyle=1;align=center;verticalAlign=top;childLayout=stackLayout;horizontal=1;startSize=26;horizontalStack=0;resizeParent=1;resizeParentMax=0;resizeLast=0;collapsible=1;marginBottom=0;whiteSpace=wrap;html=1;" vertex="1" parent="WIyWlLk6GJQsqaUBKTNV-1">
          <mxGeometry x="637" y="680" width="190" height="186" as="geometry" />
        </mxCell>
        <mxCell id="DAk2LymFE52niI233r9b-38" value="" style="line;strokeWidth=1;fillColor=none;align=left;verticalAlign=middle;spacingTop=-1;spacingLeft=3;spacingRight=3;rotatable=0;labelPosition=right;points=[];portConstraint=eastwest;strokeColor=inherit;" vertex="1" parent="DAk2LymFE52niI233r9b-36">
          <mxGeometry y="26" width="190" height="8" as="geometry" />
        </mxCell>
        <mxCell id="DAk2LymFE52niI233r9b-39" value="+ uploadDoc(in Text: byte[]): void&lt;div&gt;+ print(): void&lt;/div&gt;&lt;div&gt;- createPacket(): void&lt;br&gt;&lt;div&gt;- checkFileType(): bool&lt;div&gt;- checkPrinter(): bool&lt;/div&gt;&lt;div&gt;- checkProperties(): bool&lt;/div&gt;&lt;div&gt;- checkAvailablePage(): bool&lt;/div&gt;&lt;div&gt;- updateNoPage(): void&lt;/div&gt;&lt;/div&gt;&lt;div&gt;- log(): void&lt;/div&gt;&lt;/div&gt;" style="text;strokeColor=none;fillColor=none;align=left;verticalAlign=top;spacingLeft=4;spacingRight=4;overflow=hidden;rotatable=0;points=[[0,0.5],[1,0.5]];portConstraint=eastwest;whiteSpace=wrap;html=1;" vertex="1" parent="DAk2LymFE52niI233r9b-36">
          <mxGeometry y="34" width="190" height="152" as="geometry" />
        </mxCell>
        <mxCell id="N-Cw9iXqyluHti3zevqQ-44" style="edgeStyle=orthogonalEdgeStyle;rounded=0;orthogonalLoop=1;jettySize=auto;html=1;exitX=0.5;exitY=0;exitDx=0;exitDy=0;endArrow=none;endFill=0;" edge="1" parent="WIyWlLk6GJQsqaUBKTNV-1" source="DAk2LymFE52niI233r9b-40" target="DAk2LymFE52niI233r9b-20">
          <mxGeometry relative="1" as="geometry">
            <Array as="points">
              <mxPoint x="1280" y="600" />
              <mxPoint x="720" y="600" />
            </Array>
          </mxGeometry>
        </mxCell>
        <mxCell id="N-Cw9iXqyluHti3zevqQ-67" style="edgeStyle=orthogonalEdgeStyle;rounded=0;orthogonalLoop=1;jettySize=auto;html=1;dashed=1;endArrow=open;endFill=0;" edge="1" parent="WIyWlLk6GJQsqaUBKTNV-1" source="DAk2LymFE52niI233r9b-40" target="N-Cw9iXqyluHti3zevqQ-63">
          <mxGeometry relative="1" as="geometry">
            <Array as="points">
              <mxPoint x="1340" y="920" />
            </Array>
          </mxGeometry>
        </mxCell>
        <mxCell id="N-Cw9iXqyluHti3zevqQ-68" value="Use" style="edgeLabel;html=1;align=center;verticalAlign=middle;resizable=0;points=[];" vertex="1" connectable="0" parent="N-Cw9iXqyluHti3zevqQ-67">
          <mxGeometry x="-0.1792" y="-2" relative="1" as="geometry">
            <mxPoint y="-39" as="offset" />
          </mxGeometry>
        </mxCell>
        <mxCell id="DAk2LymFE52niI233r9b-40" value="Student Purchase Controller" style="swimlane;fontStyle=1;align=center;verticalAlign=top;childLayout=stackLayout;horizontal=1;startSize=26;horizontalStack=0;resizeParent=1;resizeParentMax=0;resizeLast=0;collapsible=1;marginBottom=0;whiteSpace=wrap;html=1;" vertex="1" parent="WIyWlLk6GJQsqaUBKTNV-1">
          <mxGeometry x="1180" y="680" width="200" height="120" as="geometry" />
        </mxCell>
        <mxCell id="DAk2LymFE52niI233r9b-42" value="" style="line;strokeWidth=1;fillColor=none;align=left;verticalAlign=middle;spacingTop=-1;spacingLeft=3;spacingRight=3;rotatable=0;labelPosition=right;points=[];portConstraint=eastwest;strokeColor=inherit;" vertex="1" parent="DAk2LymFE52niI233r9b-40">
          <mxGeometry y="26" width="200" height="8" as="geometry" />
        </mxCell>
        <mxCell id="DAk2LymFE52niI233r9b-43" value="&lt;div&gt;- createOrder(): void&lt;div&gt;- updateNoPage(): void&lt;/div&gt;&lt;div&gt;- log(): void&lt;/div&gt;&lt;/div&gt;&lt;div&gt;+ purchase(): void&lt;br&gt;&lt;/div&gt;&lt;div&gt;&lt;br&gt;&lt;/div&gt;" style="text;strokeColor=none;fillColor=none;align=left;verticalAlign=top;spacingLeft=4;spacingRight=4;overflow=hidden;rotatable=0;points=[[0,0.5],[1,0.5]];portConstraint=eastwest;whiteSpace=wrap;html=1;" vertex="1" parent="DAk2LymFE52niI233r9b-40">
          <mxGeometry y="34" width="200" height="86" as="geometry" />
        </mxCell>
        <mxCell id="N-Cw9iXqyluHti3zevqQ-11" style="edgeStyle=orthogonalEdgeStyle;rounded=0;orthogonalLoop=1;jettySize=auto;html=1;exitX=0.5;exitY=0;exitDx=0;exitDy=0;endArrow=none;endFill=0;" edge="1" parent="WIyWlLk6GJQsqaUBKTNV-1" source="DAk2LymFE52niI233r9b-44" target="DAk2LymFE52niI233r9b-24">
          <mxGeometry relative="1" as="geometry">
            <Array as="points">
              <mxPoint x="-880" y="600" />
              <mxPoint x="-180" y="600" />
            </Array>
          </mxGeometry>
        </mxCell>
        <mxCell id="N-Cw9iXqyluHti3zevqQ-56" style="edgeStyle=orthogonalEdgeStyle;rounded=0;orthogonalLoop=1;jettySize=auto;html=1;dashed=1;endArrow=open;endFill=0;" edge="1" parent="WIyWlLk6GJQsqaUBKTNV-1" source="DAk2LymFE52niI233r9b-44" target="N-Cw9iXqyluHti3zevqQ-52">
          <mxGeometry relative="1" as="geometry">
            <mxPoint x="390" y="1370" as="targetPoint" />
            <Array as="points">
              <mxPoint x="-720" y="740" />
              <mxPoint x="-720" y="1500" />
            </Array>
          </mxGeometry>
        </mxCell>
        <mxCell id="DAk2LymFE52niI233r9b-44" value="SPSO Page Config Controller" style="swimlane;fontStyle=1;align=center;verticalAlign=top;childLayout=stackLayout;horizontal=1;startSize=30;horizontalStack=0;resizeParent=1;resizeParentMax=0;resizeLast=0;collapsible=1;marginBottom=0;whiteSpace=wrap;html=1;" vertex="1" parent="WIyWlLk6GJQsqaUBKTNV-1">
          <mxGeometry x="-990" y="680" width="220" height="120" as="geometry" />
        </mxCell>
        <mxCell id="DAk2LymFE52niI233r9b-46" value="" style="line;strokeWidth=1;fillColor=none;align=left;verticalAlign=middle;spacingTop=-1;spacingLeft=3;spacingRight=3;rotatable=0;labelPosition=right;points=[];portConstraint=eastwest;strokeColor=inherit;" vertex="1" parent="DAk2LymFE52niI233r9b-44">
          <mxGeometry y="30" width="220" height="8" as="geometry" />
        </mxCell>
        <mxCell id="DAk2LymFE52niI233r9b-47" value="+ saveConfig(): Configuration&lt;div&gt;- checkPermittedType(): bool&lt;/div&gt;&lt;div&gt;- checkDefaultPageLimit(): bool&lt;/div&gt;&lt;div&gt;- checkDefaultPageCountDate(): bool&lt;/div&gt;" style="text;strokeColor=none;fillColor=none;align=left;verticalAlign=top;spacingLeft=4;spacingRight=4;overflow=hidden;rotatable=0;points=[[0,0.5],[1,0.5]];portConstraint=eastwest;whiteSpace=wrap;html=1;" vertex="1" parent="DAk2LymFE52niI233r9b-44">
          <mxGeometry y="38" width="220" height="82" as="geometry" />
        </mxCell>
        <mxCell id="N-Cw9iXqyluHti3zevqQ-10" style="edgeStyle=orthogonalEdgeStyle;rounded=0;orthogonalLoop=1;jettySize=auto;html=1;exitX=0.5;exitY=0;exitDx=0;exitDy=0;endArrow=none;endFill=0;" edge="1" parent="WIyWlLk6GJQsqaUBKTNV-1" source="DAk2LymFE52niI233r9b-48" target="DAk2LymFE52niI233r9b-24">
          <mxGeometry relative="1" as="geometry">
            <Array as="points">
              <mxPoint x="-1220" y="600" />
              <mxPoint x="-180" y="600" />
            </Array>
          </mxGeometry>
        </mxCell>
        <mxCell id="N-Cw9iXqyluHti3zevqQ-13" style="edgeStyle=orthogonalEdgeStyle;rounded=0;orthogonalLoop=1;jettySize=auto;html=1;exitX=0.5;exitY=1;exitDx=0;exitDy=0;dashed=1;endArrow=open;endFill=0;" edge="1" parent="WIyWlLk6GJQsqaUBKTNV-1" source="DAk2LymFE52niI233r9b-48" target="N-Cw9iXqyluHti3zevqQ-0">
          <mxGeometry relative="1" as="geometry">
            <mxPoint x="350" y="1690" as="targetPoint" />
            <Array as="points">
              <mxPoint x="-1220" y="1680" />
              <mxPoint y="1680" />
            </Array>
          </mxGeometry>
        </mxCell>
        <mxCell id="N-Cw9iXqyluHti3zevqQ-14" value="Use" style="edgeLabel;html=1;align=center;verticalAlign=middle;resizable=0;points=[];" vertex="1" connectable="0" parent="N-Cw9iXqyluHti3zevqQ-13">
          <mxGeometry x="-0.1325" y="-3" relative="1" as="geometry">
            <mxPoint x="617" y="-3" as="offset" />
          </mxGeometry>
        </mxCell>
        <mxCell id="DAk2LymFE52niI233r9b-48" value="SPSO Printer Config Controller" style="swimlane;fontStyle=1;align=center;verticalAlign=top;childLayout=stackLayout;horizontal=1;startSize=26;horizontalStack=0;resizeParent=1;resizeParentMax=0;resizeLast=0;collapsible=1;marginBottom=0;whiteSpace=wrap;html=1;" vertex="1" parent="WIyWlLk6GJQsqaUBKTNV-1">
          <mxGeometry x="-1320" y="680" width="200" height="120" as="geometry" />
        </mxCell>
        <mxCell id="DAk2LymFE52niI233r9b-49" value="- printerList[]: Printer" style="text;strokeColor=none;fillColor=none;align=left;verticalAlign=top;spacingLeft=4;spacingRight=4;overflow=hidden;rotatable=0;points=[[0,0.5],[1,0.5]];portConstraint=eastwest;whiteSpace=wrap;html=1;" vertex="1" parent="DAk2LymFE52niI233r9b-48">
          <mxGeometry y="26" width="200" height="26" as="geometry" />
        </mxCell>
        <mxCell id="DAk2LymFE52niI233r9b-50" value="" style="line;strokeWidth=1;fillColor=none;align=left;verticalAlign=middle;spacingTop=-1;spacingLeft=3;spacingRight=3;rotatable=0;labelPosition=right;points=[];portConstraint=eastwest;strokeColor=inherit;" vertex="1" parent="DAk2LymFE52niI233r9b-48">
          <mxGeometry y="52" width="200" height="8" as="geometry" />
        </mxCell>
        <mxCell id="DAk2LymFE52niI233r9b-51" value="+ add(in printer: Printer): void&lt;div&gt;+ enable(in printerID: string): void&lt;/div&gt;&lt;div&gt;+ disable(in printerID: string): void&lt;/div&gt;" style="text;strokeColor=none;fillColor=none;align=left;verticalAlign=top;spacingLeft=4;spacingRight=4;overflow=hidden;rotatable=0;points=[[0,0.5],[1,0.5]];portConstraint=eastwest;whiteSpace=wrap;html=1;" vertex="1" parent="DAk2LymFE52niI233r9b-48">
          <mxGeometry y="60" width="200" height="60" as="geometry" />
        </mxCell>
        <mxCell id="N-Cw9iXqyluHti3zevqQ-30" style="edgeStyle=orthogonalEdgeStyle;rounded=0;orthogonalLoop=1;jettySize=auto;html=1;dashed=1;endArrow=open;endFill=0;" edge="1" parent="WIyWlLk6GJQsqaUBKTNV-1" source="N-Cw9iXqyluHti3zevqQ-47" target="N-Cw9iXqyluHti3zevqQ-26">
          <mxGeometry relative="1" as="geometry">
            <mxPoint x="-10" y="794" as="sourcePoint" />
          </mxGeometry>
        </mxCell>
        <mxCell id="N-Cw9iXqyluHti3zevqQ-31" value="Use" style="edgeLabel;html=1;align=center;verticalAlign=middle;resizable=0;points=[];" vertex="1" connectable="0" parent="N-Cw9iXqyluHti3zevqQ-30">
          <mxGeometry x="-0.1292" y="-3" relative="1" as="geometry">
            <mxPoint as="offset" />
          </mxGeometry>
        </mxCell>
        <mxCell id="N-Cw9iXqyluHti3zevqQ-9" style="edgeStyle=orthogonalEdgeStyle;rounded=0;orthogonalLoop=1;jettySize=auto;html=1;exitX=0.5;exitY=0;exitDx=0;exitDy=0;endArrow=none;endFill=0;" edge="1" parent="WIyWlLk6GJQsqaUBKTNV-1" source="DAk2LymFE52niI233r9b-56" target="DAk2LymFE52niI233r9b-24">
          <mxGeometry relative="1" as="geometry" />
        </mxCell>
        <mxCell id="N-Cw9iXqyluHti3zevqQ-19" style="edgeStyle=orthogonalEdgeStyle;rounded=0;orthogonalLoop=1;jettySize=auto;html=1;exitX=1;exitY=0.5;exitDx=0;exitDy=0;endArrow=open;endFill=0;dashed=1;" edge="1" parent="WIyWlLk6GJQsqaUBKTNV-1" source="DAk2LymFE52niI233r9b-59" target="N-Cw9iXqyluHti3zevqQ-15">
          <mxGeometry relative="1" as="geometry">
            <Array as="points">
              <mxPoint x="230" y="740" />
              <mxPoint x="280" y="740" />
            </Array>
          </mxGeometry>
        </mxCell>
        <mxCell id="N-Cw9iXqyluHti3zevqQ-20" value="Use" style="edgeLabel;html=1;align=center;verticalAlign=middle;resizable=0;points=[];" vertex="1" connectable="0" parent="N-Cw9iXqyluHti3zevqQ-19">
          <mxGeometry x="-0.009" y="-2" relative="1" as="geometry">
            <mxPoint x="2" y="-39" as="offset" />
          </mxGeometry>
        </mxCell>
        <mxCell id="DAk2LymFE52niI233r9b-56" value="SPSO View History Controller" style="swimlane;fontStyle=1;align=center;verticalAlign=top;childLayout=stackLayout;horizontal=1;startSize=26;horizontalStack=0;resizeParent=1;resizeParentMax=0;resizeLast=0;collapsible=1;marginBottom=0;whiteSpace=wrap;html=1;" vertex="1" parent="WIyWlLk6GJQsqaUBKTNV-1">
          <mxGeometry x="50" y="680" width="180" height="90" as="geometry" />
        </mxCell>
        <mxCell id="DAk2LymFE52niI233r9b-58" value="" style="line;strokeWidth=1;fillColor=none;align=left;verticalAlign=middle;spacingTop=-1;spacingLeft=3;spacingRight=3;rotatable=0;labelPosition=right;points=[];portConstraint=eastwest;strokeColor=inherit;" vertex="1" parent="DAk2LymFE52niI233r9b-56">
          <mxGeometry y="26" width="180" height="8" as="geometry" />
        </mxCell>
        <mxCell id="DAk2LymFE52niI233r9b-59" value="+ filterBy_Time(): void&lt;div&gt;+ filterBy_Student(): void&lt;/div&gt;&lt;div&gt;+ filterBy_Printer(): void&lt;/div&gt;" style="text;strokeColor=none;fillColor=none;align=left;verticalAlign=top;spacingLeft=4;spacingRight=4;overflow=hidden;rotatable=0;points=[[0,0.5],[1,0.5]];portConstraint=eastwest;whiteSpace=wrap;html=1;" vertex="1" parent="DAk2LymFE52niI233r9b-56">
          <mxGeometry y="34" width="180" height="56" as="geometry" />
        </mxCell>
        <mxCell id="J2rnADVn6QwzF2GOBrfM-4" style="edgeStyle=orthogonalEdgeStyle;rounded=0;orthogonalLoop=1;jettySize=auto;html=1;exitX=0.5;exitY=1;exitDx=0;exitDy=0;entryX=0.5;entryY=0;entryDx=0;entryDy=0;endArrow=diamondThin;endFill=1;strokeWidth=2;" edge="1" parent="WIyWlLk6GJQsqaUBKTNV-1" source="J2rnADVn6QwzF2GOBrfM-0" target="DAk2LymFE52niI233r9b-0">
          <mxGeometry relative="1" as="geometry" />
        </mxCell>
        <mxCell id="J2rnADVn6QwzF2GOBrfM-0" value="Login" style="swimlane;fontStyle=1;align=center;verticalAlign=top;childLayout=stackLayout;horizontal=1;startSize=26;horizontalStack=0;resizeParent=1;resizeParentMax=0;resizeLast=0;collapsible=1;marginBottom=0;whiteSpace=wrap;html=1;" vertex="1" parent="WIyWlLk6GJQsqaUBKTNV-1">
          <mxGeometry x="320" width="160" height="78" as="geometry" />
        </mxCell>
        <mxCell id="J2rnADVn6QwzF2GOBrfM-1" value="- username: string&lt;div&gt;- password: string&lt;/div&gt;" style="text;strokeColor=none;fillColor=none;align=left;verticalAlign=top;spacingLeft=4;spacingRight=4;overflow=hidden;rotatable=0;points=[[0,0.5],[1,0.5]];portConstraint=eastwest;whiteSpace=wrap;html=1;" vertex="1" parent="J2rnADVn6QwzF2GOBrfM-0">
          <mxGeometry y="26" width="160" height="44" as="geometry" />
        </mxCell>
        <mxCell id="J2rnADVn6QwzF2GOBrfM-2" value="" style="line;strokeWidth=1;fillColor=none;align=left;verticalAlign=middle;spacingTop=-1;spacingLeft=3;spacingRight=3;rotatable=0;labelPosition=right;points=[];portConstraint=eastwest;strokeColor=inherit;" vertex="1" parent="J2rnADVn6QwzF2GOBrfM-0">
          <mxGeometry y="70" width="160" height="8" as="geometry" />
        </mxCell>
        <mxCell id="N-Cw9iXqyluHti3zevqQ-0" value="Printer" style="swimlane;fontStyle=1;align=center;verticalAlign=top;childLayout=stackLayout;horizontal=1;startSize=30;horizontalStack=0;resizeParent=1;resizeParentMax=0;resizeLast=0;collapsible=1;marginBottom=0;whiteSpace=wrap;html=1;" vertex="1" parent="WIyWlLk6GJQsqaUBKTNV-1">
          <mxGeometry x="-140" y="1800" width="280" height="200" as="geometry" />
        </mxCell>
        <mxCell id="N-Cw9iXqyluHti3zevqQ-1" value="- ID: string&lt;div&gt;- brand: string&lt;/div&gt;&lt;div&gt;- model: string&lt;/div&gt;&lt;div&gt;- description: string&lt;/div&gt;&lt;div&gt;- campus: string&lt;/div&gt;&lt;div&gt;- building: string&lt;/div&gt;&lt;div&gt;- room: string&lt;/div&gt;&lt;div&gt;- status: PrinterState&lt;/div&gt;" style="text;strokeColor=none;fillColor=none;align=left;verticalAlign=top;spacingLeft=4;spacingRight=4;overflow=hidden;rotatable=0;points=[[0,0.5],[1,0.5]];portConstraint=eastwest;whiteSpace=wrap;html=1;" vertex="1" parent="N-Cw9iXqyluHti3zevqQ-0">
          <mxGeometry y="30" width="280" height="120" as="geometry" />
        </mxCell>
        <mxCell id="N-Cw9iXqyluHti3zevqQ-2" value="" style="line;strokeWidth=1;fillColor=none;align=left;verticalAlign=middle;spacingTop=-1;spacingLeft=3;spacingRight=3;rotatable=0;labelPosition=right;points=[];portConstraint=eastwest;strokeColor=inherit;" vertex="1" parent="N-Cw9iXqyluHti3zevqQ-0">
          <mxGeometry y="150" width="280" height="8" as="geometry" />
        </mxCell>
        <mxCell id="N-Cw9iXqyluHti3zevqQ-3" value="+ updatePrinterState(in state: PrinterState): void&lt;div&gt;+ create(): void&lt;/div&gt;" style="text;strokeColor=none;fillColor=none;align=left;verticalAlign=top;spacingLeft=4;spacingRight=4;overflow=hidden;rotatable=0;points=[[0,0.5],[1,0.5]];portConstraint=eastwest;whiteSpace=wrap;html=1;" vertex="1" parent="N-Cw9iXqyluHti3zevqQ-0">
          <mxGeometry y="158" width="280" height="42" as="geometry" />
        </mxCell>
        <mxCell id="N-Cw9iXqyluHti3zevqQ-4" value="&lt;span style=&quot;font-weight: normal;&quot;&gt;&amp;lt;&amp;lt;enumeration&amp;gt;&amp;gt;&lt;/span&gt;&lt;div&gt;PrinterState&lt;/div&gt;" style="swimlane;fontStyle=1;align=center;verticalAlign=top;childLayout=stackLayout;horizontal=1;startSize=40;horizontalStack=0;resizeParent=1;resizeParentMax=0;resizeLast=0;collapsible=1;marginBottom=0;whiteSpace=wrap;html=1;" vertex="1" parent="WIyWlLk6GJQsqaUBKTNV-1">
          <mxGeometry x="-400" y="1800" width="160" height="88" as="geometry" />
        </mxCell>
        <mxCell id="N-Cw9iXqyluHti3zevqQ-5" value="Enabled&lt;div&gt;Disabled&lt;br&gt;&lt;div&gt;&lt;br&gt;&lt;/div&gt;&lt;/div&gt;" style="text;strokeColor=none;fillColor=none;align=left;verticalAlign=top;spacingLeft=4;spacingRight=4;overflow=hidden;rotatable=0;points=[[0,0.5],[1,0.5]];portConstraint=eastwest;whiteSpace=wrap;html=1;" vertex="1" parent="N-Cw9iXqyluHti3zevqQ-4">
          <mxGeometry y="40" width="160" height="40" as="geometry" />
        </mxCell>
        <mxCell id="N-Cw9iXqyluHti3zevqQ-6" value="" style="line;strokeWidth=1;fillColor=none;align=left;verticalAlign=middle;spacingTop=-1;spacingLeft=3;spacingRight=3;rotatable=0;labelPosition=right;points=[];portConstraint=eastwest;strokeColor=inherit;" vertex="1" parent="N-Cw9iXqyluHti3zevqQ-4">
          <mxGeometry y="80" width="160" height="8" as="geometry" />
        </mxCell>
        <mxCell id="N-Cw9iXqyluHti3zevqQ-15" value="Log" style="swimlane;fontStyle=1;align=center;verticalAlign=top;childLayout=stackLayout;horizontal=1;startSize=26;horizontalStack=0;resizeParent=1;resizeParentMax=0;resizeLast=0;collapsible=1;marginBottom=0;whiteSpace=wrap;html=1;" vertex="1" parent="WIyWlLk6GJQsqaUBKTNV-1">
          <mxGeometry x="240" y="1080" width="160" height="200" as="geometry" />
        </mxCell>
        <mxCell id="N-Cw9iXqyluHti3zevqQ-16" value="- studentID: string&lt;div&gt;- printerID: string&lt;/div&gt;&lt;div&gt;- filename: string&lt;/div&gt;&lt;div&gt;- startTime: datetime&lt;/div&gt;&lt;div&gt;- endTime: datetime&lt;/div&gt;&lt;div&gt;- pageSize: string&lt;/div&gt;&lt;div&gt;- noPage: integer&lt;/div&gt;" style="text;strokeColor=none;fillColor=none;align=left;verticalAlign=top;spacingLeft=4;spacingRight=4;overflow=hidden;rotatable=0;points=[[0,0.5],[1,0.5]];portConstraint=eastwest;whiteSpace=wrap;html=1;" vertex="1" parent="N-Cw9iXqyluHti3zevqQ-15">
          <mxGeometry y="26" width="160" height="114" as="geometry" />
        </mxCell>
        <mxCell id="N-Cw9iXqyluHti3zevqQ-17" value="" style="line;strokeWidth=1;fillColor=none;align=left;verticalAlign=middle;spacingTop=-1;spacingLeft=3;spacingRight=3;rotatable=0;labelPosition=right;points=[];portConstraint=eastwest;strokeColor=inherit;" vertex="1" parent="N-Cw9iXqyluHti3zevqQ-15">
          <mxGeometry y="140" width="160" height="8" as="geometry" />
        </mxCell>
        <mxCell id="N-Cw9iXqyluHti3zevqQ-18" value="+ create(): void&lt;div&gt;+ getLog()&lt;/div&gt;" style="text;strokeColor=none;fillColor=none;align=left;verticalAlign=top;spacingLeft=4;spacingRight=4;overflow=hidden;rotatable=0;points=[[0,0.5],[1,0.5]];portConstraint=eastwest;whiteSpace=wrap;html=1;" vertex="1" parent="N-Cw9iXqyluHti3zevqQ-15">
          <mxGeometry y="148" width="160" height="52" as="geometry" />
        </mxCell>
        <mxCell id="N-Cw9iXqyluHti3zevqQ-21" value="" style="text;strokeColor=none;fillColor=none;align=left;verticalAlign=middle;spacingTop=-1;spacingLeft=4;spacingRight=4;rotatable=0;labelPosition=right;points=[];portConstraint=eastwest;" vertex="1" parent="WIyWlLk6GJQsqaUBKTNV-1">
          <mxGeometry x="-230" y="1030" width="20" height="14" as="geometry" />
        </mxCell>
        <mxCell id="N-Cw9iXqyluHti3zevqQ-26" value="Report" style="swimlane;fontStyle=1;align=center;verticalAlign=top;childLayout=stackLayout;horizontal=1;startSize=26;horizontalStack=0;resizeParent=1;resizeParentMax=0;resizeLast=0;collapsible=1;marginBottom=0;whiteSpace=wrap;html=1;" vertex="1" parent="WIyWlLk6GJQsqaUBKTNV-1">
          <mxGeometry x="-260" y="880" width="160" height="154" as="geometry" />
        </mxCell>
        <mxCell id="N-Cw9iXqyluHti3zevqQ-27" value="&lt;div&gt;- fromDate: datetime&lt;/div&gt;&lt;div&gt;- toDate: datetime&lt;/div&gt;&lt;div&gt;- totalPageUse: int&lt;/div&gt;&lt;div&gt;- totalStudentUse: int&lt;/div&gt;&lt;div&gt;- revenue: int&lt;/div&gt;" style="text;strokeColor=none;fillColor=none;align=left;verticalAlign=top;spacingLeft=4;spacingRight=4;overflow=hidden;rotatable=0;points=[[0,0.5],[1,0.5]];portConstraint=eastwest;whiteSpace=wrap;html=1;" vertex="1" parent="N-Cw9iXqyluHti3zevqQ-26">
          <mxGeometry y="26" width="160" height="84" as="geometry" />
        </mxCell>
        <mxCell id="N-Cw9iXqyluHti3zevqQ-28" value="" style="line;strokeWidth=1;fillColor=none;align=left;verticalAlign=middle;spacingTop=-1;spacingLeft=3;spacingRight=3;rotatable=0;labelPosition=right;points=[];portConstraint=eastwest;strokeColor=inherit;" vertex="1" parent="N-Cw9iXqyluHti3zevqQ-26">
          <mxGeometry y="110" width="160" height="2" as="geometry" />
        </mxCell>
        <mxCell id="N-Cw9iXqyluHti3zevqQ-29" value="+ create(): void&lt;div&gt;+ getReport(): Report&lt;/div&gt;" style="text;strokeColor=none;fillColor=none;align=left;verticalAlign=top;spacingLeft=4;spacingRight=4;overflow=hidden;rotatable=0;points=[[0,0.5],[1,0.5]];portConstraint=eastwest;whiteSpace=wrap;html=1;" vertex="1" parent="N-Cw9iXqyluHti3zevqQ-26">
          <mxGeometry y="112" width="160" height="42" as="geometry" />
        </mxCell>
        <mxCell id="N-Cw9iXqyluHti3zevqQ-40" style="edgeStyle=orthogonalEdgeStyle;rounded=0;orthogonalLoop=1;jettySize=auto;html=1;exitX=0.5;exitY=0;exitDx=0;exitDy=0;endArrow=block;endFill=0;" edge="1" parent="WIyWlLk6GJQsqaUBKTNV-1" source="N-Cw9iXqyluHti3zevqQ-32" target="N-Cw9iXqyluHti3zevqQ-26">
          <mxGeometry relative="1" as="geometry">
            <Array as="points">
              <mxPoint x="-300" y="1120" />
              <mxPoint x="-180" y="1120" />
            </Array>
          </mxGeometry>
        </mxCell>
        <mxCell id="N-Cw9iXqyluHti3zevqQ-32" value="Monthly report" style="swimlane;fontStyle=1;align=center;verticalAlign=top;childLayout=stackLayout;horizontal=1;startSize=26;horizontalStack=0;resizeParent=1;resizeParentMax=0;resizeLast=0;collapsible=1;marginBottom=0;whiteSpace=wrap;html=1;" vertex="1" parent="WIyWlLk6GJQsqaUBKTNV-1">
          <mxGeometry x="-360" y="1200" width="120" height="34" as="geometry" />
        </mxCell>
        <mxCell id="N-Cw9iXqyluHti3zevqQ-34" value="" style="line;strokeWidth=1;fillColor=none;align=left;verticalAlign=middle;spacingTop=-1;spacingLeft=3;spacingRight=3;rotatable=0;labelPosition=right;points=[];portConstraint=eastwest;strokeColor=inherit;" vertex="1" parent="N-Cw9iXqyluHti3zevqQ-32">
          <mxGeometry y="26" width="120" height="8" as="geometry" />
        </mxCell>
        <mxCell id="N-Cw9iXqyluHti3zevqQ-41" style="edgeStyle=orthogonalEdgeStyle;rounded=0;orthogonalLoop=1;jettySize=auto;html=1;exitX=0.5;exitY=0;exitDx=0;exitDy=0;endArrow=block;endFill=0;" edge="1" parent="WIyWlLk6GJQsqaUBKTNV-1" source="N-Cw9iXqyluHti3zevqQ-36" target="N-Cw9iXqyluHti3zevqQ-26">
          <mxGeometry relative="1" as="geometry">
            <Array as="points">
              <mxPoint x="-60" y="1120" />
              <mxPoint x="-180" y="1120" />
            </Array>
          </mxGeometry>
        </mxCell>
        <mxCell id="N-Cw9iXqyluHti3zevqQ-36" value="Yearly report" style="swimlane;fontStyle=1;align=center;verticalAlign=top;childLayout=stackLayout;horizontal=1;startSize=26;horizontalStack=0;resizeParent=1;resizeParentMax=0;resizeLast=0;collapsible=1;marginBottom=0;whiteSpace=wrap;html=1;" vertex="1" parent="WIyWlLk6GJQsqaUBKTNV-1">
          <mxGeometry x="-120" y="1200" width="120" height="34" as="geometry" />
        </mxCell>
        <mxCell id="N-Cw9iXqyluHti3zevqQ-38" value="" style="line;strokeWidth=1;fillColor=none;align=left;verticalAlign=middle;spacingTop=-1;spacingLeft=3;spacingRight=3;rotatable=0;labelPosition=right;points=[];portConstraint=eastwest;strokeColor=inherit;" vertex="1" parent="N-Cw9iXqyluHti3zevqQ-36">
          <mxGeometry y="26" width="120" height="8" as="geometry" />
        </mxCell>
        <mxCell id="N-Cw9iXqyluHti3zevqQ-51" style="edgeStyle=orthogonalEdgeStyle;rounded=0;orthogonalLoop=1;jettySize=auto;html=1;exitX=0.5;exitY=0;exitDx=0;exitDy=0;endArrow=none;endFill=0;" edge="1" parent="WIyWlLk6GJQsqaUBKTNV-1" source="N-Cw9iXqyluHti3zevqQ-47" target="DAk2LymFE52niI233r9b-24">
          <mxGeometry relative="1" as="geometry" />
        </mxCell>
        <mxCell id="N-Cw9iXqyluHti3zevqQ-47" value="SPSO View Report Controller" style="swimlane;fontStyle=1;align=center;verticalAlign=top;childLayout=stackLayout;horizontal=1;startSize=26;horizontalStack=0;resizeParent=1;resizeParentMax=0;resizeLast=0;collapsible=1;marginBottom=0;whiteSpace=wrap;html=1;" vertex="1" parent="WIyWlLk6GJQsqaUBKTNV-1">
          <mxGeometry x="-270" y="680" width="180" height="60" as="geometry" />
        </mxCell>
        <mxCell id="N-Cw9iXqyluHti3zevqQ-49" value="" style="line;strokeWidth=1;fillColor=none;align=left;verticalAlign=middle;spacingTop=-1;spacingLeft=3;spacingRight=3;rotatable=0;labelPosition=right;points=[];portConstraint=eastwest;strokeColor=inherit;" vertex="1" parent="N-Cw9iXqyluHti3zevqQ-47">
          <mxGeometry y="26" width="180" height="8" as="geometry" />
        </mxCell>
        <mxCell id="N-Cw9iXqyluHti3zevqQ-50" value="+ filterBy_Time(): void" style="text;strokeColor=none;fillColor=none;align=left;verticalAlign=top;spacingLeft=4;spacingRight=4;overflow=hidden;rotatable=0;points=[[0,0.5],[1,0.5]];portConstraint=eastwest;whiteSpace=wrap;html=1;" vertex="1" parent="N-Cw9iXqyluHti3zevqQ-47">
          <mxGeometry y="34" width="180" height="26" as="geometry" />
        </mxCell>
        <mxCell id="N-Cw9iXqyluHti3zevqQ-52" value="Configuration" style="swimlane;fontStyle=1;align=center;verticalAlign=top;childLayout=stackLayout;horizontal=1;startSize=26;horizontalStack=0;resizeParent=1;resizeParentMax=0;resizeLast=0;collapsible=1;marginBottom=0;whiteSpace=wrap;html=1;" vertex="1" parent="WIyWlLk6GJQsqaUBKTNV-1">
          <mxGeometry x="-130" y="1440" width="260" height="120" as="geometry" />
        </mxCell>
        <mxCell id="N-Cw9iXqyluHti3zevqQ-53" value="- defaultNoPage: integer&lt;div&gt;- giveDate: string&lt;/div&gt;&lt;div&gt;- fileType[]: string&lt;/div&gt;" style="text;strokeColor=none;fillColor=none;align=left;verticalAlign=top;spacingLeft=4;spacingRight=4;overflow=hidden;rotatable=0;points=[[0,0.5],[1,0.5]];portConstraint=eastwest;whiteSpace=wrap;html=1;" vertex="1" parent="N-Cw9iXqyluHti3zevqQ-52">
          <mxGeometry y="26" width="260" height="54" as="geometry" />
        </mxCell>
        <mxCell id="N-Cw9iXqyluHti3zevqQ-54" value="" style="line;strokeWidth=1;fillColor=none;align=left;verticalAlign=middle;spacingTop=-1;spacingLeft=3;spacingRight=3;rotatable=0;labelPosition=right;points=[];portConstraint=eastwest;strokeColor=inherit;" vertex="1" parent="N-Cw9iXqyluHti3zevqQ-52">
          <mxGeometry y="80" width="260" height="8" as="geometry" />
        </mxCell>
        <mxCell id="N-Cw9iXqyluHti3zevqQ-55" value="+ updateConfig(in config: Configuration): void&lt;div&gt;&lt;br&gt;&lt;/div&gt;" style="text;strokeColor=none;fillColor=none;align=left;verticalAlign=top;spacingLeft=4;spacingRight=4;overflow=hidden;rotatable=0;points=[[0,0.5],[1,0.5]];portConstraint=eastwest;whiteSpace=wrap;html=1;" vertex="1" parent="N-Cw9iXqyluHti3zevqQ-52">
          <mxGeometry y="88" width="260" height="32" as="geometry" />
        </mxCell>
        <mxCell id="N-Cw9iXqyluHti3zevqQ-63" value="BKPay_Controller" style="swimlane;fontStyle=1;align=center;verticalAlign=top;childLayout=stackLayout;horizontal=1;startSize=26;horizontalStack=0;resizeParent=1;resizeParentMax=0;resizeLast=0;collapsible=1;marginBottom=0;whiteSpace=wrap;html=1;" vertex="1" parent="WIyWlLk6GJQsqaUBKTNV-1">
          <mxGeometry x="1460" y="883" width="160" height="74" as="geometry" />
        </mxCell>
        <mxCell id="N-Cw9iXqyluHti3zevqQ-65" value="" style="line;strokeWidth=1;fillColor=none;align=left;verticalAlign=middle;spacingTop=-1;spacingLeft=3;spacingRight=3;rotatable=0;labelPosition=right;points=[];portConstraint=eastwest;strokeColor=inherit;" vertex="1" parent="N-Cw9iXqyluHti3zevqQ-63">
          <mxGeometry y="26" width="160" height="8" as="geometry" />
        </mxCell>
        <mxCell id="N-Cw9iXqyluHti3zevqQ-66" value="+ checkPurchase(): bool&lt;div&gt;+ paid(): void&lt;/div&gt;" style="text;strokeColor=none;fillColor=none;align=left;verticalAlign=top;spacingLeft=4;spacingRight=4;overflow=hidden;rotatable=0;points=[[0,0.5],[1,0.5]];portConstraint=eastwest;whiteSpace=wrap;html=1;" vertex="1" parent="N-Cw9iXqyluHti3zevqQ-63">
          <mxGeometry y="34" width="160" height="40" as="geometry" />
        </mxCell>
        <mxCell id="N-Cw9iXqyluHti3zevqQ-73" value="&lt;div&gt;&lt;span style=&quot;font-weight: normal;&quot;&gt;&amp;lt;&amp;lt;enumeration&amp;gt;&amp;gt;&lt;/span&gt;&lt;/div&gt;Role" style="swimlane;fontStyle=1;align=center;verticalAlign=top;childLayout=stackLayout;horizontal=1;startSize=50;horizontalStack=0;resizeParent=1;resizeParentMax=0;resizeLast=0;collapsible=1;marginBottom=0;whiteSpace=wrap;html=1;" vertex="1" parent="WIyWlLk6GJQsqaUBKTNV-1">
          <mxGeometry y="78" width="160" height="98" as="geometry" />
        </mxCell>
        <mxCell id="N-Cw9iXqyluHti3zevqQ-74" value="Student&lt;div&gt;SPSO&lt;/div&gt;" style="text;strokeColor=none;fillColor=none;align=left;verticalAlign=top;spacingLeft=4;spacingRight=4;overflow=hidden;rotatable=0;points=[[0,0.5],[1,0.5]];portConstraint=eastwest;whiteSpace=wrap;html=1;" vertex="1" parent="N-Cw9iXqyluHti3zevqQ-73">
          <mxGeometry y="50" width="160" height="40" as="geometry" />
        </mxCell>
        <mxCell id="N-Cw9iXqyluHti3zevqQ-75" value="" style="line;strokeWidth=1;fillColor=none;align=left;verticalAlign=middle;spacingTop=-1;spacingLeft=3;spacingRight=3;rotatable=0;labelPosition=right;points=[];portConstraint=eastwest;strokeColor=inherit;" vertex="1" parent="N-Cw9iXqyluHti3zevqQ-73">
          <mxGeometry y="90" width="160" height="8" as="geometry" />
        </mxCell>
        <mxCell id="uwkByYollk92JQCde-ek-2" value="Student Dashboard View" style="swimlane;fontStyle=1;align=center;verticalAlign=top;childLayout=stackLayout;horizontal=1;startSize=26;horizontalStack=0;resizeParent=1;resizeParentMax=0;resizeLast=0;collapsible=1;marginBottom=0;whiteSpace=wrap;html=1;" vertex="1" parent="WIyWlLk6GJQsqaUBKTNV-1">
          <mxGeometry x="920" y="360" width="180" height="160" as="geometry" />
        </mxCell>
        <mxCell id="uwkByYollk92JQCde-ek-4" value="" style="line;strokeWidth=1;fillColor=none;align=left;verticalAlign=middle;spacingTop=-1;spacingLeft=3;spacingRight=3;rotatable=0;labelPosition=right;points=[];portConstraint=eastwest;strokeColor=inherit;" vertex="1" parent="uwkByYollk92JQCde-ek-2">
          <mxGeometry y="26" width="180" height="8" as="geometry" />
        </mxCell>
        <mxCell id="uwkByYollk92JQCde-ek-5" value="+ display(): void&lt;div&gt;&lt;div&gt;+ on&lt;span style=&quot;background-color: initial;&quot;&gt;Click_&lt;/span&gt;&lt;span style=&quot;background-color: initial;&quot;&gt;viewProfile(): void&lt;/span&gt;&lt;/div&gt;&lt;div&gt;+ on&lt;span style=&quot;background-color: initial;&quot;&gt;Click_&lt;/span&gt;&lt;span style=&quot;background-color: initial;&quot;&gt;Print(): void&lt;/span&gt;&lt;/div&gt;&lt;div&gt;+ on&lt;span style=&quot;background-color: initial;&quot;&gt;Click_&lt;/span&gt;&lt;span style=&quot;background-color: initial;&quot;&gt;Purchase(): void&lt;/span&gt;&lt;/div&gt;&lt;div&gt;+ on&lt;span style=&quot;background-color: initial;&quot;&gt;Click_v&lt;/span&gt;&lt;span style=&quot;background-color: initial;&quot;&gt;iewHistory():void&lt;/span&gt;&lt;/div&gt;&lt;div&gt;+ on&lt;span style=&quot;background-color: initial;&quot;&gt;Click_&lt;/span&gt;&lt;span style=&quot;background-color: initial;&quot;&gt;Login(): void&lt;/span&gt;&lt;/div&gt;&lt;div&gt;+ on&lt;span style=&quot;background-color: initial;&quot;&gt;Click_&lt;/span&gt;&lt;span style=&quot;background-color: initial;&quot;&gt;Logout(): void&lt;/span&gt;&lt;/div&gt;&lt;/div&gt;" style="text;strokeColor=none;fillColor=none;align=left;verticalAlign=top;spacingLeft=4;spacingRight=4;overflow=hidden;rotatable=0;points=[[0,0.5],[1,0.5]];portConstraint=eastwest;whiteSpace=wrap;html=1;" vertex="1" parent="uwkByYollk92JQCde-ek-2">
          <mxGeometry y="34" width="180" height="126" as="geometry" />
        </mxCell>
        <mxCell id="uwkByYollk92JQCde-ek-6" value="SPSO Main View" style="swimlane;fontStyle=1;align=center;verticalAlign=top;childLayout=stackLayout;horizontal=1;startSize=22;horizontalStack=0;resizeParent=1;resizeParentMax=0;resizeLast=0;collapsible=1;marginBottom=0;whiteSpace=wrap;html=1;" vertex="1" parent="WIyWlLk6GJQsqaUBKTNV-1">
          <mxGeometry x="-640" y="360" width="240" height="160" as="geometry" />
        </mxCell>
        <mxCell id="uwkByYollk92JQCde-ek-8" value="" style="line;strokeWidth=1;fillColor=none;align=left;verticalAlign=middle;spacingTop=-1;spacingLeft=3;spacingRight=3;rotatable=0;labelPosition=right;points=[];portConstraint=eastwest;strokeColor=inherit;" vertex="1" parent="uwkByYollk92JQCde-ek-6">
          <mxGeometry y="22" width="240" height="8" as="geometry" />
        </mxCell>
        <mxCell id="uwkByYollk92JQCde-ek-9" value="+ display(): void&lt;div&gt;+ onClick_v&lt;span style=&quot;background-color: initial;&quot;&gt;iewProfile&lt;/span&gt;&lt;span style=&quot;background-color: initial;&quot;&gt;(): void&lt;/span&gt;&lt;/div&gt;&lt;div&gt;+ onClick_&lt;span style=&quot;background-color: initial;&quot;&gt;PrinterSetting&lt;/span&gt;&lt;span style=&quot;background-color: initial;&quot;&gt;(): void&lt;/span&gt;&lt;/div&gt;&lt;div&gt;+ onClick_&lt;span style=&quot;background-color: initial;&quot;&gt;PageSetting&lt;/span&gt;&lt;span style=&quot;background-color: initial;&quot;&gt;(): void&lt;/span&gt;&lt;/div&gt;&lt;div&gt;+ onClick_&lt;span style=&quot;background-color: initial;&quot;&gt;viewHistory&lt;/span&gt;&lt;span style=&quot;background-color: initial;&quot;&gt;(): void&lt;/span&gt;&lt;/div&gt;&lt;div&gt;+ onClick_v&lt;span style=&quot;background-color: initial;&quot;&gt;iewReport&lt;/span&gt;&lt;span style=&quot;background-color: initial;&quot;&gt;(): void&lt;/span&gt;&lt;/div&gt;&lt;div&gt;+ onClick_&lt;span style=&quot;background-color: initial;&quot;&gt;Login&lt;/span&gt;&lt;span style=&quot;background-color: initial;&quot;&gt;(): void&lt;/span&gt;&lt;/div&gt;&lt;div&gt;+ onClick_&lt;span style=&quot;background-color: initial;&quot;&gt;Logout&lt;/span&gt;&lt;span style=&quot;background-color: initial;&quot;&gt;():void&lt;/span&gt;&lt;/div&gt;" style="text;strokeColor=none;fillColor=none;align=left;verticalAlign=top;spacingLeft=4;spacingRight=4;overflow=hidden;rotatable=0;points=[[0,0.5],[1,0.5]];portConstraint=eastwest;whiteSpace=wrap;html=1;" vertex="1" parent="uwkByYollk92JQCde-ek-6">
          <mxGeometry y="30" width="240" height="130" as="geometry" />
        </mxCell>
        <mxCell id="uwkByYollk92JQCde-ek-12" value="Student View History View" style="swimlane;fontStyle=1;align=center;verticalAlign=top;childLayout=stackLayout;horizontal=1;startSize=26;horizontalStack=0;resizeParent=1;resizeParentMax=0;resizeLast=0;collapsible=1;marginBottom=0;whiteSpace=wrap;html=1;" vertex="1" parent="WIyWlLk6GJQsqaUBKTNV-1">
          <mxGeometry x="367.5" y="883" width="185" height="110" as="geometry" />
        </mxCell>
        <mxCell id="uwkByYollk92JQCde-ek-14" value="" style="line;strokeWidth=1;fillColor=none;align=left;verticalAlign=middle;spacingTop=-1;spacingLeft=3;spacingRight=3;rotatable=0;labelPosition=right;points=[];portConstraint=eastwest;strokeColor=inherit;" vertex="1" parent="uwkByYollk92JQCde-ek-12">
          <mxGeometry y="26" width="185" height="8" as="geometry" />
        </mxCell>
        <mxCell id="uwkByYollk92JQCde-ek-15" value="+ display(): void&lt;div&gt;+ displayStudentHistory(): void&amp;nbsp;&lt;/div&gt;&lt;div&gt;+ displayByTimePeriod(): void&lt;/div&gt;&lt;div&gt;+ displayByPrinter(): void&lt;/div&gt;" style="text;strokeColor=none;fillColor=none;align=left;verticalAlign=top;spacingLeft=4;spacingRight=4;overflow=hidden;rotatable=0;points=[[0,0.5],[1,0.5]];portConstraint=eastwest;whiteSpace=wrap;html=1;" vertex="1" parent="uwkByYollk92JQCde-ek-12">
          <mxGeometry y="34" width="185" height="76" as="geometry" />
        </mxCell>
        <mxCell id="uwkByYollk92JQCde-ek-18" value="Student Printing View" style="swimlane;fontStyle=1;align=center;verticalAlign=top;childLayout=stackLayout;horizontal=1;startSize=30;horizontalStack=0;resizeParent=1;resizeParentMax=0;resizeLast=0;collapsible=1;marginBottom=0;whiteSpace=wrap;html=1;" vertex="1" parent="WIyWlLk6GJQsqaUBKTNV-1">
          <mxGeometry x="827" y="943" width="170" height="94" as="geometry" />
        </mxCell>
        <mxCell id="uwkByYollk92JQCde-ek-20" value="" style="line;strokeWidth=1;fillColor=none;align=left;verticalAlign=middle;spacingTop=-1;spacingLeft=3;spacingRight=3;rotatable=0;labelPosition=right;points=[];portConstraint=eastwest;strokeColor=inherit;" vertex="1" parent="uwkByYollk92JQCde-ek-18">
          <mxGeometry y="30" width="170" height="8" as="geometry" />
        </mxCell>
        <mxCell id="uwkByYollk92JQCde-ek-21" value="+ display(): void&lt;div&gt;&lt;div&gt;+ on&lt;span style=&quot;background-color: initial;&quot;&gt;Click_&lt;/span&gt;&lt;span style=&quot;background-color: initial;&quot;&gt;UploadDoc(): void&lt;/span&gt;&lt;/div&gt;&lt;div&gt;+ on&lt;span style=&quot;background-color: initial;&quot;&gt;Click_&lt;/span&gt;&lt;span style=&quot;background-color: initial;&quot;&gt;Print(): void&lt;/span&gt;&lt;/div&gt;&lt;/div&gt;" style="text;strokeColor=none;fillColor=none;align=left;verticalAlign=top;spacingLeft=4;spacingRight=4;overflow=hidden;rotatable=0;points=[[0,0.5],[1,0.5]];portConstraint=eastwest;whiteSpace=wrap;html=1;" vertex="1" parent="uwkByYollk92JQCde-ek-18">
          <mxGeometry y="38" width="170" height="56" as="geometry" />
        </mxCell>
        <mxCell id="uwkByYollk92JQCde-ek-23" value="Student Purchase View" style="swimlane;fontStyle=1;align=center;verticalAlign=top;childLayout=stackLayout;horizontal=1;startSize=26;horizontalStack=0;resizeParent=1;resizeParentMax=0;resizeLast=0;collapsible=1;marginBottom=0;whiteSpace=wrap;html=1;" vertex="1" parent="WIyWlLk6GJQsqaUBKTNV-1">
          <mxGeometry x="1500" y="720" width="154" height="100" as="geometry" />
        </mxCell>
        <mxCell id="uwkByYollk92JQCde-ek-25" value="" style="line;strokeWidth=1;fillColor=none;align=left;verticalAlign=middle;spacingTop=-1;spacingLeft=3;spacingRight=3;rotatable=0;labelPosition=right;points=[];portConstraint=eastwest;strokeColor=inherit;" vertex="1" parent="uwkByYollk92JQCde-ek-23">
          <mxGeometry y="26" width="154" height="8" as="geometry" />
        </mxCell>
        <mxCell id="uwkByYollk92JQCde-ek-26" value="+ display(): void&lt;div&gt;&lt;span style=&quot;background-color: initial;&quot;&gt;+ on&lt;/span&gt;&lt;span style=&quot;background-color: initial;&quot;&gt;Click_&lt;/span&gt;&lt;span style=&quot;background-color: initial;&quot;&gt;Purchase(): void&lt;br&gt;+ onClick_NumPage():void&lt;/span&gt;&lt;/div&gt;" style="text;strokeColor=none;fillColor=none;align=left;verticalAlign=top;spacingLeft=4;spacingRight=4;overflow=hidden;rotatable=0;points=[[0,0.5],[1,0.5]];portConstraint=eastwest;whiteSpace=wrap;html=1;" vertex="1" parent="uwkByYollk92JQCde-ek-23">
          <mxGeometry y="34" width="154" height="66" as="geometry" />
        </mxCell>
        <mxCell id="J4QjejY9KERDEn0IFmht-0" value="Packet" style="swimlane;fontStyle=1;align=center;verticalAlign=top;childLayout=stackLayout;horizontal=1;startSize=26;horizontalStack=0;resizeParent=1;resizeParentMax=0;resizeLast=0;collapsible=1;marginBottom=0;whiteSpace=wrap;html=1;" vertex="1" parent="WIyWlLk6GJQsqaUBKTNV-1">
          <mxGeometry x="940" y="680" width="120" height="120" as="geometry" />
        </mxCell>
        <mxCell id="J4QjejY9KERDEn0IFmht-1" value="- page_No.: int&lt;div&gt;- page_Size: string&lt;/div&gt;&lt;div&gt;- file_Name: string&lt;br&gt;&lt;/div&gt;&lt;div&gt;- file_Content: byte[]&lt;/div&gt;" style="text;strokeColor=none;fillColor=none;align=left;verticalAlign=top;spacingLeft=4;spacingRight=4;overflow=hidden;rotatable=0;points=[[0,0.5],[1,0.5]];portConstraint=eastwest;whiteSpace=wrap;html=1;" vertex="1" parent="J4QjejY9KERDEn0IFmht-0">
          <mxGeometry y="26" width="120" height="64" as="geometry" />
        </mxCell>
        <mxCell id="J4QjejY9KERDEn0IFmht-2" value="" style="line;strokeWidth=1;fillColor=none;align=left;verticalAlign=middle;spacingTop=-1;spacingLeft=3;spacingRight=3;rotatable=0;labelPosition=right;points=[];portConstraint=eastwest;strokeColor=inherit;" vertex="1" parent="J4QjejY9KERDEn0IFmht-0">
          <mxGeometry y="90" width="120" height="8" as="geometry" />
        </mxCell>
        <mxCell id="J4QjejY9KERDEn0IFmht-3" value="+ create(): void" style="text;strokeColor=none;fillColor=none;align=left;verticalAlign=top;spacingLeft=4;spacingRight=4;overflow=hidden;rotatable=0;points=[[0,0.5],[1,0.5]];portConstraint=eastwest;whiteSpace=wrap;html=1;" vertex="1" parent="J4QjejY9KERDEn0IFmht-0">
          <mxGeometry y="98" width="120" height="22" as="geometry" />
        </mxCell>
        <mxCell id="J4QjejY9KERDEn0IFmht-4" style="edgeStyle=orthogonalEdgeStyle;rounded=0;orthogonalLoop=1;jettySize=auto;html=1;endArrow=diamondThin;endFill=1;entryX=1.005;entryY=0.171;entryDx=0;entryDy=0;entryPerimeter=0;" edge="1" parent="WIyWlLk6GJQsqaUBKTNV-1" target="DAk2LymFE52niI233r9b-39">
          <mxGeometry relative="1" as="geometry">
            <mxPoint x="940" y="740" as="sourcePoint" />
            <mxPoint x="830" y="740" as="targetPoint" />
            <Array as="points" />
          </mxGeometry>
        </mxCell>
        <mxCell id="H47OUPcspRU4lnukVNKj-4" value="SPSO Printer Config View" style="swimlane;fontStyle=1;align=center;verticalAlign=top;childLayout=stackLayout;horizontal=1;startSize=26;horizontalStack=0;resizeParent=1;resizeParentMax=0;resizeLast=0;collapsible=1;marginBottom=0;whiteSpace=wrap;html=1;" vertex="1" parent="WIyWlLk6GJQsqaUBKTNV-1">
          <mxGeometry x="-1600" y="680" width="160" height="120" as="geometry" />
        </mxCell>
        <mxCell id="H47OUPcspRU4lnukVNKj-6" value="" style="line;strokeWidth=1;fillColor=none;align=left;verticalAlign=middle;spacingTop=-1;spacingLeft=3;spacingRight=3;rotatable=0;labelPosition=right;points=[];portConstraint=eastwest;strokeColor=inherit;" vertex="1" parent="H47OUPcspRU4lnukVNKj-4">
          <mxGeometry y="26" width="160" height="8" as="geometry" />
        </mxCell>
        <mxCell id="H47OUPcspRU4lnukVNKj-7" value="&lt;div&gt;&lt;div&gt;- loadPrinterInfo(): void&lt;/div&gt;&lt;/div&gt;&lt;div&gt;+ display(): void&lt;/div&gt;&lt;div&gt;&lt;span style=&quot;background-color: initial;&quot;&gt;+ on&lt;/span&gt;&lt;span style=&quot;background-color: initial;&quot;&gt;Click_&lt;/span&gt;&lt;span style=&quot;background-color: initial;&quot;&gt;Add(): void&lt;/span&gt;&lt;br&gt;&lt;/div&gt;&lt;div&gt;+ on&lt;span style=&quot;background-color: initial;&quot;&gt;Click_&lt;/span&gt;&lt;span style=&quot;background-color: initial;&quot;&gt;Enable(): void&lt;/span&gt;&lt;/div&gt;&lt;div&gt;+ on&lt;span style=&quot;background-color: initial;&quot;&gt;Click_&lt;/span&gt;&lt;span style=&quot;background-color: initial;&quot;&gt;Disable(): void&lt;/span&gt;&lt;/div&gt;" style="text;strokeColor=none;fillColor=none;align=left;verticalAlign=top;spacingLeft=4;spacingRight=4;overflow=hidden;rotatable=0;points=[[0,0.5],[1,0.5]];portConstraint=eastwest;whiteSpace=wrap;html=1;" vertex="1" parent="H47OUPcspRU4lnukVNKj-4">
          <mxGeometry y="34" width="160" height="86" as="geometry" />
        </mxCell>
        <mxCell id="H47OUPcspRU4lnukVNKj-12" style="edgeStyle=orthogonalEdgeStyle;rounded=0;orthogonalLoop=1;jettySize=auto;html=1;exitX=0.5;exitY=0;exitDx=0;exitDy=0;endArrow=none;endFill=0;" edge="1" parent="WIyWlLk6GJQsqaUBKTNV-1" source="H47OUPcspRU4lnukVNKj-9" target="DAk2LymFE52niI233r9b-44">
          <mxGeometry relative="1" as="geometry">
            <Array as="points">
              <mxPoint x="-880" y="920" />
            </Array>
          </mxGeometry>
        </mxCell>
        <mxCell id="H47OUPcspRU4lnukVNKj-9" value="SPSO Page Config View" style="swimlane;fontStyle=1;align=center;verticalAlign=top;childLayout=stackLayout;horizontal=1;startSize=26;horizontalStack=0;resizeParent=1;resizeParentMax=0;resizeLast=0;collapsible=1;marginBottom=0;whiteSpace=wrap;html=1;" vertex="1" parent="WIyWlLk6GJQsqaUBKTNV-1">
          <mxGeometry x="-970" y="920" width="180" height="80" as="geometry" />
        </mxCell>
        <mxCell id="H47OUPcspRU4lnukVNKj-10" value="" style="line;strokeWidth=1;fillColor=none;align=left;verticalAlign=middle;spacingTop=-1;spacingLeft=3;spacingRight=3;rotatable=0;labelPosition=right;points=[];portConstraint=eastwest;strokeColor=inherit;" vertex="1" parent="H47OUPcspRU4lnukVNKj-9">
          <mxGeometry y="26" width="180" height="8" as="geometry" />
        </mxCell>
        <mxCell id="H47OUPcspRU4lnukVNKj-11" value="+ display(): void&lt;div&gt;+ onClick_saveConfig(): void&lt;/div&gt;" style="text;strokeColor=none;fillColor=none;align=left;verticalAlign=top;spacingLeft=4;spacingRight=4;overflow=hidden;rotatable=0;points=[[0,0.5],[1,0.5]];portConstraint=eastwest;whiteSpace=wrap;html=1;" vertex="1" parent="H47OUPcspRU4lnukVNKj-9">
          <mxGeometry y="34" width="180" height="46" as="geometry" />
        </mxCell>
        <mxCell id="H47OUPcspRU4lnukVNKj-13" value="SPSO View Report View" style="swimlane;fontStyle=1;align=center;verticalAlign=top;childLayout=stackLayout;horizontal=1;startSize=25;horizontalStack=0;resizeParent=1;resizeParentMax=0;resizeLast=0;collapsible=1;marginBottom=0;whiteSpace=wrap;html=1;" vertex="1" parent="WIyWlLk6GJQsqaUBKTNV-1">
          <mxGeometry x="-600" y="675" width="200" height="85" as="geometry" />
        </mxCell>
        <mxCell id="H47OUPcspRU4lnukVNKj-14" value="" style="line;strokeWidth=1;fillColor=none;align=left;verticalAlign=middle;spacingTop=-1;spacingLeft=3;spacingRight=3;rotatable=0;labelPosition=right;points=[];portConstraint=eastwest;strokeColor=inherit;" vertex="1" parent="H47OUPcspRU4lnukVNKj-13">
          <mxGeometry y="25" width="200" height="8" as="geometry" />
        </mxCell>
        <mxCell id="H47OUPcspRU4lnukVNKj-15" value="+ display(): void&lt;br&gt;- displayReport(): void&lt;div&gt;- displayByTimePeriod(): void&lt;/div&gt;" style="text;strokeColor=none;fillColor=none;align=left;verticalAlign=top;spacingLeft=4;spacingRight=4;overflow=hidden;rotatable=0;points=[[0,0.5],[1,0.5]];portConstraint=eastwest;whiteSpace=wrap;html=1;" vertex="1" parent="H47OUPcspRU4lnukVNKj-13">
          <mxGeometry y="33" width="200" height="52" as="geometry" />
        </mxCell>
        <mxCell id="H47OUPcspRU4lnukVNKj-16" style="edgeStyle=orthogonalEdgeStyle;rounded=0;orthogonalLoop=1;jettySize=auto;html=1;endArrow=none;endFill=0;exitX=0.998;exitY=0.247;exitDx=0;exitDy=0;exitPerimeter=0;" edge="1" parent="WIyWlLk6GJQsqaUBKTNV-1" source="H47OUPcspRU4lnukVNKj-15">
          <mxGeometry relative="1" as="geometry">
            <mxPoint x="-390" y="720" as="sourcePoint" />
            <mxPoint x="-270" y="720" as="targetPoint" />
            <Array as="points">
              <mxPoint x="-383" y="721" />
            </Array>
          </mxGeometry>
        </mxCell>
        <mxCell id="H47OUPcspRU4lnukVNKj-20" style="edgeStyle=orthogonalEdgeStyle;rounded=0;orthogonalLoop=1;jettySize=auto;html=1;exitX=0.5;exitY=0;exitDx=0;exitDy=0;endArrow=none;endFill=0;" edge="1" parent="WIyWlLk6GJQsqaUBKTNV-1" source="H47OUPcspRU4lnukVNKj-17" target="DAk2LymFE52niI233r9b-56">
          <mxGeometry relative="1" as="geometry" />
        </mxCell>
        <mxCell id="H47OUPcspRU4lnukVNKj-17" value="SPSO View History View" style="swimlane;fontStyle=1;align=center;verticalAlign=top;childLayout=stackLayout;horizontal=1;startSize=26;horizontalStack=0;resizeParent=1;resizeParentMax=0;resizeLast=0;collapsible=1;marginBottom=0;whiteSpace=wrap;html=1;" vertex="1" parent="WIyWlLk6GJQsqaUBKTNV-1">
          <mxGeometry x="60" y="883" width="160" height="100" as="geometry" />
        </mxCell>
        <mxCell id="H47OUPcspRU4lnukVNKj-18" value="" style="line;strokeWidth=1;fillColor=none;align=left;verticalAlign=middle;spacingTop=-1;spacingLeft=3;spacingRight=3;rotatable=0;labelPosition=right;points=[];portConstraint=eastwest;strokeColor=inherit;" vertex="1" parent="H47OUPcspRU4lnukVNKj-17">
          <mxGeometry y="26" width="160" height="8" as="geometry" />
        </mxCell>
        <mxCell id="H47OUPcspRU4lnukVNKj-19" value="&lt;div&gt;+ display(): void&lt;/div&gt;&lt;div&gt;+ displayHistory(): void&lt;/div&gt;&lt;div&gt;+ displayByStudent(): void&lt;/div&gt;&lt;div&gt;+ displayByPrinter(): void&lt;/div&gt;" style="text;strokeColor=none;fillColor=none;align=left;verticalAlign=top;spacingLeft=4;spacingRight=4;overflow=hidden;rotatable=0;points=[[0,0.5],[1,0.5]];portConstraint=eastwest;whiteSpace=wrap;html=1;" vertex="1" parent="H47OUPcspRU4lnukVNKj-17">
          <mxGeometry y="34" width="160" height="66" as="geometry" />
        </mxCell>
        <mxCell id="H47OUPcspRU4lnukVNKj-21" style="edgeStyle=orthogonalEdgeStyle;rounded=0;orthogonalLoop=1;jettySize=auto;html=1;endArrow=none;endFill=0;" edge="1" parent="WIyWlLk6GJQsqaUBKTNV-1" target="DAk2LymFE52niI233r9b-48">
          <mxGeometry relative="1" as="geometry">
            <mxPoint x="-1440" y="740" as="sourcePoint" />
            <Array as="points">
              <mxPoint x="-1440" y="740" />
            </Array>
          </mxGeometry>
        </mxCell>
        <mxCell id="6uAIaDaR55YWHYjOsm8X-3" style="edgeStyle=orthogonalEdgeStyle;rounded=0;orthogonalLoop=1;jettySize=auto;html=1;exitX=1;exitY=0.5;exitDx=0;exitDy=0;endArrow=none;endFill=0;" edge="1" parent="WIyWlLk6GJQsqaUBKTNV-1">
          <mxGeometry relative="1" as="geometry">
            <mxPoint x="1380" y="760.05" as="sourcePoint" />
            <mxPoint x="1500" y="760" as="targetPoint" />
            <Array as="points">
              <mxPoint x="1500" y="760" />
            </Array>
          </mxGeometry>
        </mxCell>
        <mxCell id="6uAIaDaR55YWHYjOsm8X-4" value="Use" style="edgeLabel;html=1;align=center;verticalAlign=middle;resizable=0;points=[];" connectable="0" vertex="1" parent="WIyWlLk6GJQsqaUBKTNV-1">
          <mxGeometry x="732.0000078958999" y="1840" as="geometry">
            <mxPoint x="-1257" y="-344" as="offset" />
          </mxGeometry>
        </mxCell>
      </root>
    </mxGraphModel>
  </diagram>
</mxfile>
